<?xml version="1.0" encoding="UTF-8"?>
<svg width="30px" height="30px" viewBox="0 0 30 30" version="1.1" xmlns="http://www.w3.org/2000/svg" xmlns:xlink="http://www.w3.org/1999/xlink">
    <!-- Generator: Sketch 56.1 (81669) - https://sketch.com -->
    <title>icon5</title>
    <desc>Created with Sketch.</desc>
    <g id="Page-1" stroke="none" stroke-width="1" fill="none" fill-rule="evenodd">
        <g id="新建图表" transform="translate(-1356.000000, -233.000000)">
            <g id="分组-48-copy" transform="translate(517.000000, 153.000000)">
                <g id="icon5" transform="translate(839.000000, 80.000000)">
                    <rect id="Rectangle-Copy" x="0" y="0" width="30" height="30" rx="3"></rect>
                    <path d="M22.7959602,19.4888631 C21.2398179,22.1856269 18.3312706,24 15,24 C10.0294373,24 6,19.9605904 6,14.9777262 C6,10.2993631 9.55200958,6.45266952 14.1,6 L14.1,7.81574931 C10.5483196,8.25973369 7.8,11.2969834 7.8,14.9777262 C7.8,18.9640176 11.0235498,22.1955452 15,22.1955452 C17.2737461,22.1955452 19.3013249,21.1389693 20.6208339,19.4888631 L22.7959602,19.4888631 Z M23.8199674,16.7821809 L21.9731685,16.7821809 C22.1212446,16.2054412 22.2,15.6008036 22.2,14.9777262 C22.2,11.6145122 19.905409,8.78855506 16.8,7.98729993 L16.8,6.13593047 C20.9080326,6.97188083 24,10.612826 24,14.9777262 C24,15.5956903 23.9380255,16.1991436 23.8199674,16.7821809 Z" id="合并形状" fill="#707070" fill-rule="nonzero"></path>
                </g>
            </g>
        </g>
    </g>
</svg>