<?xml version="1.0" encoding="UTF-8"?>
<svg width="16px" height="15px" viewBox="0 0 16 15" version="1.1" xmlns="http://www.w3.org/2000/svg" xmlns:xlink="http://www.w3.org/1999/xlink">
    <!-- Generator: Sketch 56.1 (81669) - https://sketch.com -->
    <title>xiazai</title>
    <desc>Created with Sketch.</desc>
    <g id="Page-1" stroke="none" stroke-width="1" fill="none" fill-rule="evenodd">
        <g id="点击二级分类和用户查看媒体样式" transform="translate(-697.000000, -173.000000)" fill="#999999" fill-rule="nonzero">
            <g id="分组-2-copy-7" transform="translate(316.000000, 145.000000)">
                <g id="Group-27" transform="translate(381.000000, 28.000000)">
                    <g id="Group-32">
                        <path d="M15,7 C15,6.72385763 15.2238576,6.5 15.5,6.5 C15.7761424,6.5 16,6.72385763 16,7 L16,13.125 C16,13.9003446 15.3146796,14.5 14.5,14.5 L1.5,14.5 C0.685320411,14.5 0,13.9003446 0,13.125 L0,7 C0,6.72385763 0.223857625,6.5 0.5,6.5 C0.776142375,6.5 1,6.72385763 1,7 L1,13.125 C1,13.3161537 1.21011009,13.5 1.5,13.5 L14.5,13.5 C14.7898899,13.5 15,13.3161537 15,13.125 L15,7 Z M7.5,7.76776695 L7.5,0.5 C7.5,0.223857625 7.72385763,1.19066635e-13 8,1.19015908e-13 C8.27614237,1.18965182e-13 8.5,0.223857625 8.5,0.5 L8.5,7.76776695 L10.5606602,5.70710678 C10.7559223,5.51184464 11.0725048,5.51184464 11.267767,5.70710678 C11.4630291,5.90236893 11.4630291,6.21895142 11.267767,6.41421356 L8.43933983,9.24264069 C8.31980402,9.36217649 8.1548015,9.40853473 8,9.3817154 C7.8451985,9.40853473 7.68019598,9.36217649 7.56066017,9.24264069 L4.73223305,6.41421356 C4.5369709,6.21895142 4.5369709,5.90236893 4.73223305,5.70710678 C4.92749519,5.51184464 5.24407768,5.51184464 5.43933983,5.70710678 L7.5,7.76776695 Z" id="形状结合"></path>
                    </g>
                </g>
            </g>
        </g>
    </g>
</svg>