<?xml version="1.0" encoding="UTF-8"?>
<svg width="30px" height="30px" viewBox="0 0 30 30" version="1.1" xmlns="http://www.w3.org/2000/svg" xmlns:xlink="http://www.w3.org/1999/xlink">
    <!-- Generator: Sketch 56.1 (81669) - https://sketch.com -->
    <title>icon</title>
    <desc>Created with Sketch.</desc>
    <g id="Page-1" stroke="none" stroke-width="1" fill="none" fill-rule="evenodd">
        <g id="新建图表" transform="translate(-1178.000000, -233.000000)">
            <g id="分组-48-copy" transform="translate(517.000000, 153.000000)">
                <g id="icon" transform="translate(661.000000, 80.000000)">
                    <rect id="Rectangle" x="0" y="0" width="30" height="30" rx="3"></rect>
                    <path d="M7,22 L24,22 C24.5522847,22 25,22.4477153 25,23 C25,23.5522847 24.5522847,24 24,24 L7,24 C6.44771525,24 6,23.5522847 6,23 C6,22.4477153 6.44771525,22 7,22 Z M7.80946471,14.8338931 C7.48512608,15.2809087 6.85981997,15.380358 6.41280442,15.0560194 C5.96578888,14.7316807 5.86633959,14.1063746 6.19067822,13.6593591 L9.25788535,9.43202031 C9.68046743,8.84960201 10.5613887,8.8907299 10.9278677,9.50998738 L14.2335377,15.0957397 L19.0033904,7.46977354 C19.3472877,6.91995574 20.1154895,6.83785734 20.567812,7.30258241 L24.2379094,11.073313 C24.6231168,11.4690828 24.6145544,12.1021898 24.2187846,12.4873973 C23.8230149,12.8726047 23.1899078,12.8640423 22.8047004,12.4682725 L20.0233313,9.6106389 L15.0577231,17.549576 C14.6603038,18.1849638 13.7310064,18.1735469 13.3493168,17.5285873 L9.98231193,11.8391944 L7.80946471,14.8338931 Z" id="Combined-Shape" fill="#707070"></path>
                </g>
            </g>
        </g>
    </g>
</svg>