<?xml version="1.0" encoding="UTF-8"?>
<svg width="32px" height="32px" viewBox="0 0 32 32" version="1.1" xmlns="http://www.w3.org/2000/svg" xmlns:xlink="http://www.w3.org/1999/xlink">
    <!-- Generator: Sketch 59.1 (86144) - https://sketch.com -->
    <title>Group 28 Copy 12@2x</title>
    <desc>Created with Sketch.</desc>
    <g id="Page-1" stroke="none" stroke-width="1" fill="none" fill-rule="evenodd">
        <g id="首页--交互-" transform="translate(-598.000000, -1228.000000)" fill-rule="nonzero">
            <g id="分组-12" transform="translate(110.000000, 1148.000000)">
                <g id="Group-28-Copy-12" transform="translate(488.000000, 80.000000)">
                    <path d="M-1.20969901e-12,-3.55271368e-15 L28,-3.55271368e-15 C30.209139,-3.55271368e-15 32,1.790861 32,4 L32,32 L-1.20969901e-12,-3.55271368e-15 Z" id="Rectangle-42-Copy-5" fill="#E1E1E1"></path>
                    <path d="M20.1019145,10.8082042 L17.6220768,8.23233837 C17.250994,7.8469027 16.6493664,7.8469027 16.2782836,8.23233837 C15.9072388,8.61775431 15.9072388,9.24270352 16.2782836,9.62813919 L19.2490737,12.7140122 C19.447001,12.9195463 19.8074076,13.0131574 20.1053339,12.9985159 C20.4013035,13.0130982 20.7568849,12.9194871 20.9547173,12.7139727 L27.7216879,5.68490717 C28.0927707,5.29945177 28.0927707,4.67452228 27.7216879,4.28910635 C27.3506241,3.90363122 26.7490155,3.90363122 26.3779327,4.28910635 L20.1019145,10.8082042 Z" id="勾-copy-17" fill="#FFFFFF"></path>
                </g>
            </g>
        </g>
    </g>
</svg>