<?xml version="1.0" encoding="UTF-8"?>
<svg width="18px" height="16px" viewBox="0 0 18 16" version="1.1" xmlns="http://www.w3.org/2000/svg" xmlns:xlink="http://www.w3.org/1999/xlink">
    <!-- Generator: Sketch 59.1 (86144) - https://sketch.com -->
    <title>news</title>
    <desc>Created with Sketch.</desc>
    <g id="Page-1" stroke="none" stroke-width="1" fill="none" fill-rule="evenodd">
        <g id="首页--整合" transform="translate(-1337.000000, -96.000000)" fill="#707070" fill-rule="nonzero">
            <g id="编组-3" transform="translate(1337.000000, 95.000000)">
                <g id="形状结合-2" transform="translate(0.000000, 1.000000)">
                    <path d="M15.9428571,0 C17.0789858,0 18,0.8954305 18,2 L18,14 C18,15.1045695 17.0789858,16 15.9428571,16 L5.65714286,16 C5.13580245,16 4.65975777,15.811453 4.29721515,15.5006707 L2.16,15.5 C0.951394653,15.5 0,14.4489011 0,13.1818182 L0,13.1818182 L0,6.81818182 C0,5.55109889 0.951394653,4.5 2.16,4.5 L2.16,4.5 L3.6,4.5 L3.6,2 C3.6,0.8954305 4.52101423,0 5.65714286,0 L15.9428571,0 Z M4.62857143,14 C4.62857143,14.5522847 5.08907854,15 5.65714286,15 L15.9428571,15 C16.5109215,15 16.9714286,14.5522847 16.9714286,14 L16.9714286,2 C16.9714286,1.44771525 16.5109215,1 15.9428571,1 L5.65714286,1 C5.08907854,1 4.62857143,1.44771525 4.62857143,2 L4.62857143,14 Z M3.6,14 L3.6,5.5 L2.16,5.5 C1.58887457,5.5 1.09418968,6.00709073 1.03458503,6.68122786 L1.02857143,6.81818182 L1.02857143,13.1818182 C1.02857143,13.9230434 1.55079954,14.5 2.16,14.5 L2.16,14.5 L3.66507989,14.5010222 C3.6225976,14.3409045 3.6,14.1730179 3.6,14 Z M14.4142857,12 C14.6904281,12 14.9142857,12.2238576 14.9142857,12.5 C14.9142857,12.7761424 14.6904281,13 14.4142857,13 L7.18571429,13 C6.90957191,13 6.68571429,12.7761424 6.68571429,12.5 C6.68571429,12.2238576 6.90957191,12 7.18571429,12 L14.4142857,12 Z M14.4142857,8 C14.6904281,8 14.9142857,8.22385763 14.9142857,8.5 C14.9142857,8.77614237 14.6904281,9 14.4142857,9 L7.18571429,9 C6.90957191,9 6.68571429,8.77614237 6.68571429,8.5 C6.68571429,8.22385763 6.90957191,8 7.18571429,8 L14.4142857,8 Z M8.24285714,4 C8.51899952,4 8.74285714,4.22385763 8.74285714,4.5 C8.74285714,4.77614237 8.51899952,5 8.24285714,5 L7.18571429,5 C6.90957191,5 6.68571429,4.77614237 6.68571429,4.5 C6.68571429,4.22385763 6.90957191,4 7.18571429,4 L8.24285714,4 Z M14.4142857,4 C14.6904281,4 14.9142857,4.22385763 14.9142857,4.5 C14.9142857,4.77614237 14.6904281,5 14.4142857,5 L10.2714286,5 C9.9952862,5 9.77142857,4.77614237 9.77142857,4.5 C9.77142857,4.22385763 9.9952862,4 10.2714286,4 L14.4142857,4 Z" id="形状结合"></path>
                </g>
            </g>
        </g>
    </g>
</svg>