<?xml version="1.0" encoding="UTF-8"?>
<svg width="134px" height="126px" viewBox="0 0 134 126" version="1.1" xmlns="http://www.w3.org/2000/svg" xmlns:xlink="http://www.w3.org/1999/xlink">
    <!-- Generator: Sketch 53.2 (72643) - https://sketchapp.com -->
    <title>空状态02</title>
    <desc>Created with Sketch.</desc>
    <g id="Page-1" stroke="none" stroke-width="1" fill="none" fill-rule="evenodd">
        <g id="Artboard" transform="translate(-726.000000, -1093.000000)" fill-rule="nonzero">
            <g id="Group-4" transform="translate(726.000000, 1093.000000)">
                <path d="M0.62890625,114.988281 C0.62890625,120.787271 25.9248179,125.488281 57.1289063,125.488281 C88.3329946,125.488281 113.628906,120.787271 113.628906,114.988281 C113.628906,109.189291 88.3329946,104.488281 57.1289063,104.488281 C25.9248179,104.488281 0.62890625,109.189291 0.62890625,114.988281 Z" id="路径" fill-opacity="0.8" fill="#F5F5F7"></path>
                <path d="M102.628067,84.7380421 L82.5573138,60.3324783 C81.5942531,59.1836886 80.1865739,58.4882812 78.7033935,58.4882812 L35.5510635,58.4882812 C34.0695608,58.4882812 32.6618817,59.1836886 31.698821,60.3324783 L11.6289062,84.7380421 L11.6289062,97.4882812 L102.628906,97.4882812 L102.628067,84.7380421 Z" id="路径" fill="#AEB8C2"></path>
                <path d="M28.000255,26.4882812 L85.2575575,26.4882812 C86.1516948,26.4882812 87.0092106,26.8375856 87.6414611,27.4593513 C88.2737116,28.081117 88.6289063,28.9244123 88.6289062,29.8037218 L88.6289062,107.172841 C88.6289063,108.05215 88.2737116,108.895445 87.6414611,109.517211 C87.0092106,110.138977 86.1516948,110.488281 85.2575575,110.488281 L28.000255,110.488281 C27.1061177,110.488281 26.2486019,110.138977 25.6163514,109.517211 C24.9841009,108.895445 24.6289062,108.05215 24.6289062,107.172841 L24.6289062,29.8037218 C24.6289062,28.9244123 24.9841009,28.081117 25.6163514,27.4593513 C26.2486019,26.8375856 27.1061177,26.4882812 28.000255,26.4882812 Z" id="路径" fill="#F5F5F7"></path>
                <path d="M36.0569219,34.4882812 L78.2008906,34.4882812 C79.1275172,34.4882812 79.8786965,35.2371553 79.8786965,36.1609383 L79.8786965,57.0331892 C79.8786965,57.4768054 79.7019282,57.9022522 79.3872785,58.2159363 C79.0726289,58.5296203 78.6458724,58.7058462 78.2008906,58.7058462 L36.0569219,58.7058462 C35.1302953,58.7058462 34.379116,57.9569721 34.379116,57.0331892 L34.379116,36.1609383 C34.379116,35.2371553 35.1302953,34.4882812 36.0569219,34.4882812 Z M36.2767145,67.7858649 L77.9802591,67.7858649 C78.6583215,67.7856918 79.2849513,68.1462242 79.6240327,68.7316125 C79.963114,69.3170009 79.963114,70.0382791 79.6240327,70.6236674 C79.2849513,71.2090558 78.6583215,71.5695882 77.9802591,71.5694151 L36.2767145,71.5694151 C35.2288897,71.5691475 34.3796021,70.7222493 34.3796021,69.67764 C34.3796021,68.6330307 35.2288897,67.7861325 36.2767145,67.7858649 Z M36.2767145,77.6235972 L77.9802591,77.6235972 C78.6748396,77.598378 79.3277636,77.9534107 79.6825626,78.5492386 C80.0373615,79.1450664 80.0373615,79.8865146 79.6825626,80.4823424 C79.3277636,81.0781703 78.6748396,81.433203 77.9802591,81.4079838 L36.2767145,81.4079838 C35.2284681,81.4079838 34.3786965,80.56082 34.3786965,79.5157905 C34.3786965,78.470761 35.2284681,77.6235972 36.2767145,77.6235972 Z M102.443509,114.00556 C101.794198,116.573925 99.5107039,118.488281 96.794336,118.488281 L17.4643152,118.488281 C14.7479474,118.488281 12.4644535,116.572253 11.8151427,114.00556 C11.6916487,113.516066 11.629099,113.013272 11.6289062,112.508532 L11.6289062,84.435493 L33.7071546,84.435493 C36.1458456,84.435493 38.1113952,86.4828251 38.1113952,88.9692299 L38.1113952,89.0018467 C38.1113952,91.4865787 40.0995953,93.4929308 42.5382863,93.4929308 L71.720365,93.4929308 C74.1582171,93.4929308 76.1464171,91.4681795 76.1464171,88.9826112 L76.1464171,88.9725753 C76.1464171,86.4870069 78.1119668,84.4346568 80.5506577,84.4346566 L102.628906,84.4346566 L102.628906,112.509369 C102.628906,113.024547 102.564311,113.526344 102.443509,114.00556 Z" id="形状" fill="#DCE0E6"></path>
                <path d="M104.303907,28.0829102 L98.5614902,30.2794069 C98.1287331,30.4451801 97.641548,30.2341487 97.4727011,29.8077818 C97.4034894,29.6325082 97.3972583,29.4391521 97.4550452,29.2599009 L99.0836046,24.1151255 C96.9068672,21.674942 95.6289062,18.6993107 95.6289062,15.4882813 C95.6280655,7.20375899 104.134913,0.48828125 114.629327,0.48828125 C125.121218,0.48828125 133.628906,7.20375899 133.628906,15.4882813 C133.628906,23.7728036 125.122058,30.4882814 114.627645,30.4882812 C110.821508,30.4882812 107.276847,29.6047093 104.303907,28.0829102 L104.303907,28.0829102 Z" id="路径" fill="#DCE0E6"></path>
                <path d="M119.628906,14.9882812 C119.628906,16.3689931 120.748194,17.4882812 122.128906,17.4882812 C123.509618,17.4882812 124.628906,16.3689931 124.628906,14.9882812 C124.628906,13.6075694 123.509618,12.4882812 122.128906,12.4882812 C120.748194,12.4882812 119.628906,13.6075694 119.628906,14.9882812 Z" id="路径" fill="#FFFFFF"></path>
                <path d="M110.429243,17.4882813 L105.628906,17.4882813 L108.069513,13.4882812 L110.429243,17.4882813 Z M113.429243,13.4882812 L117.628906,13.4882812 L117.628906,17.4882813 L113.429243,17.4882813 L113.429243,13.4882812 Z" id="形状" fill="#FFFFFF"></path>
            </g>
        </g>
    </g>
</svg>