<?xml version="1.0" encoding="UTF-8"?>
<svg width="16px" height="17px" viewBox="0 0 16 17" version="1.1" xmlns="http://www.w3.org/2000/svg" xmlns:xlink="http://www.w3.org/1999/xlink">
    <!-- Generator: Sketch 56.1 (81669) - https://sketch.com -->
    <title>shuaxin</title>
    <desc>Created with Sketch.</desc>
    <g id="Page-1" stroke="none" stroke-width="1" fill="none" fill-rule="evenodd">
        <g id="点击二级分类和用户查看媒体样式" transform="translate(-665.000000, -172.000000)" fill="#999999" fill-rule="nonzero">
            <g id="分组-2-copy-7" transform="translate(316.000000, 145.000000)">
                <g id="编组" transform="translate(349.000000, 27.500000)">
                    <path d="M12.3798624,3.1970542 C11.1943087,2.1146508 9.64658962,1.5 8,1.5 C4.41014913,1.5 1.5,4.41014913 1.5,8 C1.5,11.5898509 4.41014913,14.5 8,14.5 C11.5898509,14.5 14.5,11.5898509 14.5,8 C14.5,7.72385763 14.7238576,7.5 15,7.5 C15.2761424,7.5 15.5,7.72385763 15.5,8 C15.5,12.1421356 12.1421356,15.5 8,15.5 C3.85786438,15.5 0.5,12.1421356 0.5,8 C0.5,3.85786438 3.85786438,0.5 8,0.5 C9.91475537,0.5 11.7157477,1.22160112 13.0876032,2.48931343 L13.9748885,1.60202819 C14.0654269,1.51148971 14.2045946,1.5038655 14.2857282,1.58499905 C14.3246899,1.62396076 14.3447842,1.67859831 14.3415906,1.73689206 L14.9188212,4.81468096 C14.912171,4.93607142 14.8083734,5.03986896 14.686983,5.04651925 L11.6091941,4.46928862 C11.4878036,4.47593892 11.3947883,4.38292363 11.4014386,4.26153317 C11.4046322,4.20323942 11.4308521,4.14606458 11.4743302,4.10258646 L12.3798624,3.1970542 Z" id="形状结合"></path>
                </g>
            </g>
        </g>
    </g>
</svg>