<?xml version="1.0" encoding="UTF-8"?>
<svg width="30px" height="30px" viewBox="0 0 30 30" version="1.1" xmlns="http://www.w3.org/2000/svg" xmlns:xlink="http://www.w3.org/1999/xlink">
    <!-- Generator: Sketch 56.1 (81669) - https://sketch.com -->
    <title>icon3</title>
    <desc>Created with Sketch.</desc>
    <g id="Page-1" stroke="none" stroke-width="1" fill="none" fill-rule="evenodd">
        <g id="新建图表" transform="translate(-1224.000000, -233.000000)">
            <g id="分组-48-copy" transform="translate(517.000000, 153.000000)">
                <g id="icon3" transform="translate(707.000000, 80.000000)">
                    <rect id="Rectangle" x="0" y="0" width="30" height="30" rx="3"></rect>
                    <path d="M8,22 L10,22 L10,14 C10,13.4477153 10.4477153,13 11,13 C11.5522847,13 12,13.4477153 12,14 L12,22 L14.0031534,22 C14.0010644,21.9736085 14,21.9469285 14,21.92 L14,18.26 C14,17.7077153 14.4477153,17.26 15,17.26 C15.5522847,17.26 16,17.7077153 16,18.26 L16,21.92 C16,21.9469285 15.9989356,21.9736085 15.9968466,22 L18,22 L18,15 C18,14.4477153 18.4477153,14 19,14 C19.5522847,14 20,14.4477153 20,15 L20,22 L23,22 C23.5522847,22 24,22.4477153 24,23 C24,23.5522847 23.5522847,24 23,24 L7,24 C6.44771525,24 6,23.5522847 6,23 C6,22.8730905 6.0236409,22.7517026 6.06675909,22.64 C6.0236409,22.5282974 6,22.4069095 6,22.28 L6,7 C6,6.44771525 6.44771525,6 7,6 C7.55228475,6 8,6.44771525 8,7 L8,22 Z" id="Combined-Shape" fill="#707070"></path>
                </g>
            </g>
        </g>
    </g>
</svg>