<?xml version="1.0" encoding="UTF-8"?>
<svg width="22px" height="21px" viewBox="0 0 22 21" version="1.1" xmlns="http://www.w3.org/2000/svg" xmlns:xlink="http://www.w3.org/1999/xlink">
    <!-- Generator: Sketch 61 (89581) - https://sketch.com -->
    <title>Group 10</title>
    <desc>Created with Sketch.</desc>
    <g id="12.10新闻列表-监测方案修改交互优化" stroke="none" stroke-width="1" fill="none" fill-rule="evenodd">
        <g id="新闻列表-监测方案修改-3" transform="translate(-1537.000000, -157.000000)" fill="#333333">
            <g id="编组-15" transform="translate(1516.000000, 115.000000)">
                <g id="Group-10" transform="translate(21.000000, 42.000000)">
                    <rect id="Rectangle-5" x="3.6" y="0" width="18" height="1.8" rx="0.9"></rect>
                    <rect id="Rectangle-5备份-3" x="3.6" y="8.1" width="18" height="1.8" rx="0.9"></rect>
                    <rect id="Rectangle-5备份-6" x="3.6" y="15.3" width="18" height="1.8" rx="0.9"></rect>
                    <rect id="Rectangle-5备份" x="0" y="0" width="1.8" height="1.8"></rect>
                    <rect id="Rectangle-5备份-4" x="0" y="8.1" width="1.8" height="1.8"></rect>
                    <rect id="Rectangle-5备份-7" x="0" y="15.3" width="1.8" height="1.8"></rect>
                    <rect id="Rectangle-5备份-2" x="0" y="3.6" width="1.8" height="1.8"></rect>
                    <rect id="Rectangle-5备份-5" x="0" y="10.8" width="1.8" height="1.8"></rect>
                    <rect id="Rectangle-5备份-8" x="0" y="18.9" width="1.8" height="1.8"></rect>
                    <rect id="Rectangle-5-Copy-3备份" x="3.6" y="3.6" width="10.8" height="1.8" rx="0.9"></rect>
                    <rect id="Rectangle-5-Copy-3备份-2" x="3.6" y="10.8" width="10.8" height="1.8" rx="0.9"></rect>
                    <rect id="Rectangle-5-Copy-3备份-3" x="3.6" y="18.9" width="10.8" height="1.8" rx="0.9"></rect>
                </g>
            </g>
        </g>
    </g>
</svg>