<?xml version="1.0" encoding="UTF-8"?>
<svg width="23px" height="18px" viewBox="0 0 23 18" version="1.1" xmlns="http://www.w3.org/2000/svg" xmlns:xlink="http://www.w3.org/1999/xlink">
    <!-- Generator: Sketch 61 (89581) - https://sketch.com -->
    <title>分组 15</title>
    <desc>Created with Sketch.</desc>
    <g id="12.10新闻列表-监测方案修改交互优化" stroke="none" stroke-width="1" fill="none" fill-rule="evenodd">
        <g id="新闻列表-监测方案修改-3" transform="translate(-1585.000000, -159.000000)" fill="#333333" fill-rule="nonzero">
            <g id="编组-15" transform="translate(1516.000000, 115.000000)">
                <g id="分组-15" transform="translate(69.000000, 42.000000)">
                    <g id="mice-classification备份" transform="translate(0.000000, 2.000000)">
                        <path d="M0,0 L2.7,0 L2.7,2.7 L0,2.7 L0,0 Z M0,8.1 L2.7,8.1 L2.7,10.8 L0,10.8 L0,8.1 Z M0,15.3 L2.7,15.3 L2.7,18 L0,18 L0,15.3 Z M7.54615377,2.7 L21.2538464,2.7 L21.2538463,2.7 C21.9420786,2.7 22.5,2.09558508 22.5,1.35 C22.5,0.604414921 21.9420786,0 21.2538463,0 L7.54615371,0 L7.54615367,0 C6.85792139,0 6.3,0.604414921 6.3,1.35 C6.3,2.09558508 6.85792139,2.7 7.54615367,2.7 L7.54615377,2.7 Z M21.2538464,8.1 L7.5461537,8.1 L7.54615368,8.1 C6.85792139,8.1 6.3,8.70441492 6.3,9.45 C6.3,10.1955851 6.85792139,10.8 7.54615368,10.8 L21.2538464,10.8 L21.2538463,10.8 C21.9420786,10.8 22.5,10.1955851 22.5,9.45 C22.5,8.70441492 21.9420786,8.1 21.2538463,8.1 L21.2538464,8.1 Z M21.2538464,15.3 L7.54615374,15.3 L7.54615368,15.3 C6.85792139,15.3 6.3,15.9044149 6.3,16.65 C6.3,17.3955851 6.85792139,18 7.54615368,18 L21.2538464,18 L21.2538463,18 C21.9420786,18 22.5,17.3955851 22.5,16.65 C22.5,15.9044149 21.9420786,15.3 21.2538463,15.3 L21.2538464,15.3 Z" id="形状"></path>
                    </g>
                </g>
            </g>
        </g>
    </g>
</svg>