<?xml version="1.0" encoding="UTF-8"?>
<svg width="22px" height="22px" viewBox="0 0 22 22" version="1.1" xmlns="http://www.w3.org/2000/svg" xmlns:xlink="http://www.w3.org/1999/xlink">
    <!-- Generator: Sketch 61 (89581) - https://sketch.com -->
    <title>形状</title>
    <desc>Created with Sketch.</desc>
    <g id="12.10新闻列表-监测方案修改交互优化" stroke="none" stroke-width="1" fill="none" fill-rule="evenodd">
        <g id="新闻列表-监测方案修改-3" transform="translate(-1635.000000, -157.000000)" fill="#333333" fill-rule="nonzero">
            <g id="编组-15" transform="translate(1516.000000, 115.000000)">
                <g id="分组-15" transform="translate(69.000000, 42.000000)">
                    <path d="M57.615361,10.1517634 L52.5384625,10.1517634 C51.137315,10.1517634 50,9.01468213 50,7.6137961 L50,2.53794085 C50,1.13708127 51.1372885,0 52.5384625,0 L57.615361,0 C59.0165085,0 60.1538235,1.13705482 60.1538235,2.53794085 L60.1538235,7.6137961 C60.1538235,9.01465569 59.016535,10.1517634 57.615361,10.1517634 L57.615361,10.1517634 Z M52.5384625,1.69192531 C52.0744282,1.69192531 51.6922995,2.07400196 51.6922995,2.53791441 L51.6922995,7.61376966 C51.6922995,8.07770855 52.0744547,8.45975876 52.5384625,8.45975876 L57.615361,8.45975876 C58.0793953,8.45975876 58.461524,8.07768211 58.461524,7.61376966 L58.461524,2.53794085 C58.461524,2.07400196 58.0793688,1.69192531 57.615361,1.69192531 L52.5384625,1.69192531 L52.5384625,1.69192531 Z M57.615361,22 L52.5384625,22 C51.137315,22 50,20.8629187 50,19.4620327 L50,14.3816031 C50,12.9807435 51.1372885,11.8436887 52.5384625,11.8436887 L57.615361,11.8436887 C59.0165085,11.8436887 60.1538235,12.9807435 60.1538235,14.3816031 L60.1538235,19.4575112 C60.1538235,20.8583708 59.016535,22 57.615361,22 L57.615361,22 Z M52.5384625,13.5356669 C52.0744282,13.5356669 51.6922995,13.9131692 51.6922995,14.3816296 L51.6922995,19.4575112 C51.6922995,19.925998 52.0744547,20.3035003 52.5384625,20.3035003 L57.615361,20.3035003 C58.0793953,20.3035003 58.461524,19.925998 58.461524,19.4575112 L58.461524,14.3816296 C58.461524,13.9131692 58.0793688,13.5356669 57.615361,13.5356669 L52.5384625,13.5356669 Z M69.4660593,22 L64.3845855,22 C62.983438,22 61.8461495,20.8629452 61.8461495,19.4620592 L61.8461495,17.7701074 C61.8461495,16.3692478 62.983438,15.2321666 64.3845855,15.2321666 L69.4615105,15.2321666 C70.862658,15.2321666 71.9999865,16.3692478 71.9999865,17.7701074 L71.9999865,19.4620856 C72.0045218,20.8583973 70.8626845,22 69.4660593,22 L69.4660593,22 Z M64.3845855,16.9241183 C63.9160289,16.9241183 63.538449,17.3016471 63.538449,17.7701074 L63.538449,19.4620856 C63.538449,19.9305459 63.9160289,20.3080482 64.3845855,20.3080482 L69.4615105,20.3080482 C69.9300936,20.3080482 70.3076735,19.9305459 70.3076735,19.4620592 L70.3076735,17.7701074 C70.3076735,17.3016471 69.9300936,16.9241183 69.4615105,16.9241183 L64.3845855,16.9241183 Z M69.4660593,13.5356669 L64.3845855,13.5356669 C62.983438,13.5356669 61.8461495,12.3985856 61.8461495,10.997726 L61.8461495,2.53794085 C61.8461495,1.13708127 62.983438,1.15463195e-14 64.3845855,1.15463195e-14 L69.4615105,1.15463195e-14 C70.862658,1.15463195e-14 71.9999865,1.13705482 71.9999865,2.53794085 L71.9999865,10.997726 C72.0045218,12.3985856 70.8626845,13.5356669 69.4660593,13.5356669 L69.4660593,13.5356669 Z M64.3845855,1.69195175 C63.9160289,1.69195175 63.538449,2.0740284 63.538449,2.53794085 L63.538449,10.997726 C63.538449,11.4616385 63.9160289,11.8437151 64.3845855,11.8437151 L69.4615105,11.8437151 C69.9300936,11.8437151 70.3076735,11.4616385 70.3076735,10.997726 L70.3076735,2.53794085 C70.3076735,2.07400196 69.9300936,1.69195175 69.4615105,1.69195175 L64.3845855,1.69195175 Z" id="形状"></path>
                </g>
            </g>
        </g>
    </g>
</svg>